<svg width="256" height="256" viewBox="0 0 256 256" fill="none" xmlns="http://www.w3.org/2000/svg">
<mask id="path-1-inside-1_1_2" fill="white">
<path fill-rule="evenodd" clip-rule="evenodd" d="M114.354 104.801L130.188 73.4293L141.61 27.7366L99.2812 98.8281L114.354 104.801ZM94.9201 106.153L110.354 112.725L103.08 127.138L87.9093 117.927L94.9201 106.153ZM83.6361 125.104L8.23028 251.747L51.8375 228.665L99.371 134.486L83.6361 125.104ZM188.908 146.176L199.466 150.672L211.866 193.186L205.483 189.311L188.908 146.176ZM209.694 200.27L227.28 246.036L214.824 203.329L209.694 200.27ZM195.461 136.943L156.206 2.35292L140.341 73.4272L174.609 108.964L183.546 132.221L195.461 136.943Z"/>
</mask>
<path fill-rule="evenodd" clip-rule="evenodd" d="M114.354 104.801L130.188 73.4293L141.61 27.7366L99.2812 98.8281L114.354 104.801ZM94.9201 106.153L110.354 112.725L103.08 127.138L87.9093 117.927L94.9201 106.153ZM83.6361 125.104L8.23028 251.747L51.8375 228.665L99.371 134.486L83.6361 125.104ZM188.908 146.176L199.466 150.672L211.866 193.186L205.483 189.311L188.908 146.176ZM209.694 200.27L227.28 246.036L214.824 203.329L209.694 200.27ZM195.461 136.943L156.206 2.35292L140.341 73.4272L174.609 108.964L183.546 132.221L195.461 136.943Z" fill="white"/>
<path d="M130.188 73.4293L131.973 74.3305L132.074 74.131L132.128 73.9143L130.188 73.4293ZM114.354 104.801L113.617 106.66L115.316 107.334L116.139 105.702L114.354 104.801ZM141.61 27.7366L143.551 28.2217L139.892 26.7134L141.61 27.7366ZM99.2812 98.8281L97.5627 97.8049L96.3615 99.8224L98.5443 100.687L99.2812 98.8281ZM110.354 112.725L112.14 113.626L113.101 111.721L111.138 110.885L110.354 112.725ZM94.9201 106.153L95.7037 104.312L94.0957 103.628L93.2016 105.129L94.9201 106.153ZM103.08 127.138L102.042 128.847L103.891 129.97L104.865 128.039L103.08 127.138ZM87.9093 117.927L86.1909 116.904L85.1764 118.608L86.8714 119.637L87.9093 117.927ZM8.23028 251.747L6.51183 250.724L2.86389 256.851L9.16594 253.515L8.23028 251.747ZM83.6361 125.104L84.6604 123.386L82.9415 122.361L81.9176 124.081L83.6361 125.104ZM51.8375 228.665L52.7732 230.432L53.336 230.135L53.623 229.566L51.8375 228.665ZM99.371 134.486L101.156 135.388L101.996 133.723L100.395 132.769L99.371 134.486ZM199.466 150.672L201.386 150.112L201.12 149.203L200.249 148.832L199.466 150.672ZM188.908 146.176L189.692 144.336L185.348 142.486L187.041 146.894L188.908 146.176ZM211.866 193.186L210.828 194.896L215.227 197.567L213.786 192.626L211.866 193.186ZM205.483 189.311L203.616 190.029L203.861 190.666L204.445 191.021L205.483 189.311ZM227.28 246.036L225.413 246.753L229.2 245.476L227.28 246.036ZM209.694 200.27L210.719 198.553L205.754 195.592L207.827 200.988L209.694 200.27ZM214.824 203.329L216.744 202.769L216.524 202.014L215.848 201.611L214.824 203.329ZM156.206 2.35292L158.126 1.79292L154.254 1.91721L156.206 2.35292ZM195.461 136.943L194.724 138.802L198.526 140.309L197.381 136.383L195.461 136.943ZM140.341 73.4272L138.389 72.9915L138.155 74.0412L138.901 74.8154L140.341 73.4272ZM174.609 108.964L176.476 108.247L176.33 107.868L176.049 107.576L174.609 108.964ZM183.546 132.221L181.679 132.938L181.993 133.757L182.809 134.08L183.546 132.221ZM128.402 72.5281L112.568 103.9L116.139 105.702L131.973 74.3305L128.402 72.5281ZM139.67 27.2516L128.247 72.9442L132.128 73.9143L143.551 28.2217L139.67 27.2516ZM101 99.8513L143.329 28.7598L139.892 26.7134L97.5627 97.8049L101 99.8513ZM115.091 102.942L100.018 96.9688L98.5443 100.687L113.617 106.66L115.091 102.942ZM111.138 110.885L95.7037 104.312L94.1365 107.993L109.571 114.565L111.138 110.885ZM104.865 128.039L112.14 113.626L108.569 111.824L101.295 126.237L104.865 128.039ZM86.8714 119.637L102.042 128.847L104.118 125.428L88.9473 116.217L86.8714 119.637ZM93.2016 105.129L86.1909 116.904L89.6278 118.95L96.6385 107.176L93.2016 105.129ZM9.94873 252.771L85.3545 126.127L81.9176 124.081L6.51183 250.724L9.94873 252.771ZM50.9019 226.897L7.29462 249.98L9.16594 253.515L52.7732 230.432L50.9019 226.897ZM97.5855 133.585L50.0521 227.764L53.623 229.566L101.156 135.388L97.5855 133.585ZM82.6118 126.822L98.3467 136.204L100.395 132.769L84.6604 123.386L82.6118 126.822ZM200.249 148.832L189.692 144.336L188.124 148.016L198.682 152.512L200.249 148.832ZM213.786 192.626L201.386 150.112L197.546 151.232L209.946 193.746L213.786 192.626ZM204.445 191.021L210.828 194.896L212.904 191.477L206.521 187.602L204.445 191.021ZM187.041 146.894L203.616 190.029L207.35 188.594L190.775 145.459L187.041 146.894ZM229.147 245.319L211.561 199.553L207.827 200.988L225.413 246.753L229.147 245.319ZM212.904 203.889L225.36 246.596L229.2 245.476L216.744 202.769L212.904 203.889ZM208.67 201.988L213.8 205.047L215.848 201.611L210.719 198.553L208.67 201.988ZM154.286 2.91292L193.541 137.503L197.381 136.383L158.126 1.79292L154.286 2.91292ZM142.293 73.8629L158.158 2.78862L154.254 1.91721L138.389 72.9915L142.293 73.8629ZM176.049 107.576L141.781 72.0389L138.901 74.8154L173.169 110.353L176.049 107.576ZM185.413 131.503L176.476 108.247L172.742 109.682L181.679 132.938L185.413 131.503ZM196.198 135.084L184.282 130.362L182.809 134.08L194.724 138.802L196.198 135.084Z" fill="black" mask="url(#path-1-inside-1_1_2)"/>
<path d="M214.779 158.28L18.9474 74.8874L241.952 210.283L214.779 158.28Z" fill="white" stroke="black" stroke-width="2"/>
</svg>
